<svg width="25" height="24" viewBox="0 0 25 24" fill="none" xmlns="http://www.w3.org/2000/svg">
<path fill-rule="evenodd" clip-rule="evenodd" d="M8.74318 5.26561C8.8856 5.09682 9.09135 5 9.30762 5H19.0576C19.6544 5 20.2267 5.24583 20.6486 5.68342C21.0706 6.121 21.3076 6.71449 21.3076 7.33333V16.6667C21.3076 17.2855 21.0706 17.879 20.6486 18.3166C20.2267 18.7542 19.6544 19 19.0576 19H9.30762C9.09135 19 8.8856 18.9032 8.74318 18.7344L3.49318 12.5122C3.24576 12.2189 3.24576 11.7811 3.49318 11.4878L8.74318 5.26561ZM9.64794 6.55556L5.05419 12L9.64794 17.4444H19.0576C19.2565 17.4444 19.4473 17.3625 19.5879 17.2166C19.7286 17.0708 19.8076 16.8729 19.8076 16.6667V7.33333C19.8076 7.12705 19.7286 6.92922 19.5879 6.78336C19.4473 6.6375 19.2565 6.55556 19.0576 6.55556H9.64794Z" fill="#EB5757"/>
<path fill-rule="evenodd" clip-rule="evenodd" d="M17.3379 9.11669C17.6308 9.42044 17.6308 9.9129 17.3379 10.2166L12.8379 14.8833C12.5451 15.187 12.0702 15.187 11.7773 14.8833C11.4844 14.5796 11.4844 14.0871 11.7773 13.7834L16.2773 9.11669C16.5702 8.81295 17.0451 8.81295 17.3379 9.11669Z" fill="#EB5757"/>
<path fill-rule="evenodd" clip-rule="evenodd" d="M11.7773 9.11669C12.0702 8.81295 12.5451 8.81295 12.8379 9.11669L17.3379 13.7834C17.6308 14.0871 17.6308 14.5796 17.3379 14.8833C17.0451 15.187 16.5702 15.187 16.2773 14.8833L11.7773 10.2166C11.4844 9.9129 11.4844 9.42044 11.7773 9.11669Z" fill="#EB5757"/>
</svg>
