<svg width="64" height="65" viewBox="0 0 64 65" fill="none" xmlns="http://www.w3.org/2000/svg">
<path d="M32 0.5C49.397 0.5 63.5 14.603 63.5 32V33C63.5 50.397 49.397 64.5 32 64.5C14.603 64.5 0.5 50.397 0.5 33V32C0.5 14.603 14.603 0.5 32 0.5Z" fill="#F7B50E" fill-opacity="0.1"/>
<path d="M32 0.5C49.397 0.5 63.5 14.603 63.5 32V33C63.5 50.397 49.397 64.5 32 64.5C14.603 64.5 0.5 50.397 0.5 33V32C0.5 14.603 14.603 0.5 32 0.5Z" stroke="#F7B50E"/>
<g clip-path="url(#clip0_236_6823)">
<path d="M12 32.5C12 21.4543 20.9543 12.5 32 12.5C43.0457 12.5 52 21.4543 52 32.5C52 43.5457 43.0457 52.5 32 52.5C20.9543 52.5 12 43.5457 12 32.5Z" fill="#141F23"/>
<path d="M21.7849 35.0538V37.6076C21.7849 39.0181 22.9283 40.1615 24.3387 40.1615C25.7492 40.1615 26.8926 39.0181 26.8926 37.6076V35.0538C26.8926 33.6434 25.7492 32.5 24.3387 32.5C22.9283 32.5 21.7849 33.6434 21.7849 35.0538ZM21.7849 35.0538V31.2231C21.7849 28.5138 22.8612 25.9155 24.7769 23.9998C26.6926 22.0841 29.2909 21.0078 32.0002 21.0078C34.7094 21.0078 37.3077 22.0841 39.2235 23.9998C41.1392 25.9155 42.2155 28.5138 42.2155 31.2231V35.0538M42.2155 35.0538C42.2155 33.6434 41.0721 32.5 39.6616 32.5C38.2512 32.5 37.1078 33.6434 37.1078 35.0538V37.6076C37.1078 39.0181 38.2512 40.1615 39.6616 40.1615M42.2155 35.0538V37.6076C42.2155 39.0181 41.0721 40.1615 39.6616 40.1615M39.6616 40.1615C39.6616 41.1774 38.8545 42.1518 37.4177 42.8702C35.9809 43.5886 34.0321 43.9922 32.0002 43.9922" stroke="#F7B50E" stroke-width="2" stroke-linecap="round" stroke-linejoin="round"/>
</g>
<defs>
<clipPath id="clip0_236_6823">
<path d="M12 32.5C12 21.4543 20.9543 12.5 32 12.5C43.0457 12.5 52 21.4543 52 32.5C52 43.5457 43.0457 52.5 32 52.5C20.9543 52.5 12 43.5457 12 32.5Z" fill="white"/>
</clipPath>
</defs>
</svg>
