<svg width="66" height="65" viewBox="0 0 66 65" fill="none" xmlns="http://www.w3.org/2000/svg">
<path d="M33 0.5C50.6731 0.5 65 14.8269 65 32.5C65 50.1731 50.6731 64.5 33 64.5C15.3269 64.5 1 50.1731 1 32.5C1 14.8269 15.3269 0.5 33 0.5Z" fill="#F7B50E" fill-opacity="0.1"/>
<path d="M33 0.5C50.6731 0.5 65 14.8269 65 32.5C65 50.1731 50.6731 64.5 33 64.5C15.3269 64.5 1 50.1731 1 32.5C1 14.8269 15.3269 0.5 33 0.5Z" stroke="#F7B50E"/>
<path d="M13 32.5C13 21.4543 21.9543 12.5 33 12.5C44.0457 12.5 53 21.4543 53 32.5C53 43.5457 44.0457 52.5 33 52.5C21.9543 52.5 13 43.5457 13 32.5Z" fill="#141F23"/>
<path d="M33.0001 46.1474C31.6176 46.1474 30.2478 45.7415 29.1697 44.9425L23.7157 40.871C22.2697 39.7929 21.1409 37.5352 21.1409 35.7468V26.3101C21.1409 24.3568 22.5741 22.2767 24.4133 21.5917L30.7424 19.2199C31.9981 18.7506 33.9768 18.7506 35.2325 19.2199L41.5617 21.5917C43.4008 22.2767 44.8341 24.3568 44.8341 26.3101V35.7341C44.8341 37.5352 43.7052 39.7802 42.2593 40.8583L36.8053 44.9298C35.7525 45.7415 34.3827 46.1474 33.0001 46.1474ZM31.4147 21.0083L25.0855 23.3802C24.0074 23.786 23.0561 25.1559 23.0561 26.3228V35.7468C23.0561 36.9517 23.9059 38.6387 24.8572 39.3489L30.3112 43.4204C31.7698 44.5112 34.2305 44.5112 35.7018 43.4204L41.1558 39.3489C42.1197 38.626 42.9569 36.9517 42.9569 35.7468V26.3101C42.9569 25.1559 42.0056 23.786 40.9275 23.3675L34.5983 20.9956C33.7358 20.6912 32.2645 20.6912 31.4147 21.0083Z" fill="#F7B50E"/>
<path d="M31.3002 35.3282C31.0593 35.3282 30.8183 35.2395 30.628 35.0492L28.5859 33.0071C28.2181 32.6393 28.2181 32.0305 28.5859 31.6626C28.9538 31.2948 29.5626 31.2948 29.9304 31.6626L31.3002 33.0325L36.082 28.2507C36.4498 27.8829 37.0587 27.8829 37.4265 28.2507C37.7943 28.6186 37.7943 29.2274 37.4265 29.5952L31.9725 35.0492C31.7822 35.2395 31.5412 35.3282 31.3002 35.3282Z" fill="#F7B50E"/>
</svg>
