<svg width="66" height="65" viewBox="0 0 66 65" fill="none" xmlns="http://www.w3.org/2000/svg">
<path d="M33 0.5C50.6731 0.5 65 14.8269 65 32.5C65 50.1731 50.6731 64.5 33 64.5C15.3269 64.5 1 50.1731 1 32.5C1 14.8269 15.3269 0.5 33 0.5Z" fill="#F7B50E" fill-opacity="0.1"/>
<path d="M33 0.5C50.6731 0.5 65 14.8269 65 32.5C65 50.1731 50.6731 64.5 33 64.5C15.3269 64.5 1 50.1731 1 32.5C1 14.8269 15.3269 0.5 33 0.5Z" stroke="#F7B50E"/>
<rect x="14" y="13.5" width="38" height="38" rx="19" fill="#141F23"/>
<path d="M37.7225 42.25C37.7225 42.5484 37.604 42.8346 37.393 43.0455C37.1821 43.2565 36.8959 43.375 36.5975 43.375H29.0975C28.7992 43.375 28.513 43.2565 28.302 43.0455C28.0911 42.8346 27.9725 42.5484 27.9725 42.25C27.9725 41.9517 28.0911 41.6655 28.302 41.4546C28.513 41.2436 28.7992 41.125 29.0975 41.125H36.5975C36.8959 41.125 37.1821 41.2436 37.393 41.4546C37.604 41.6655 37.7225 41.9517 37.7225 42.25ZM41.4725 30.25C41.476 31.5571 41.1807 32.8477 40.6092 34.0232C40.0378 35.1987 39.2053 36.2281 38.1754 37.0329C38.0359 37.1391 37.9225 37.2759 37.8441 37.4327C37.7656 37.5895 37.724 37.7622 37.7225 37.9375V38.125C37.7225 38.6223 37.525 39.0992 37.1734 39.4509C36.8217 39.8025 36.3448 40 35.8475 40H29.8475C29.3503 40 28.8733 39.8025 28.5217 39.4509C28.1701 39.0992 27.9725 38.6223 27.9725 38.125V37.9375C27.9723 37.7651 27.9325 37.595 27.8561 37.4404C27.7797 37.2858 27.6688 37.1509 27.5319 37.046C26.5048 36.2459 25.673 35.2227 25.0997 34.0538C24.5263 32.8848 24.2264 31.6008 24.2225 30.2988C24.1972 25.6272 27.9725 21.7375 32.6404 21.625C33.7903 21.5974 34.9342 21.8001 36.0047 22.2212C37.0751 22.6422 38.0505 23.2731 38.8735 24.0768C39.6965 24.8805 40.3504 25.8407 40.7968 26.9008C41.2431 27.961 41.4729 29.0997 41.4725 30.25ZM39.2225 30.25C39.2228 29.3997 39.0529 28.5579 38.7229 27.7742C38.3929 26.9905 37.9094 26.2807 37.301 25.6867C36.6925 25.0926 35.9714 24.6263 35.18 24.3152C34.3886 24.0041 33.543 23.8544 32.6929 23.875C29.2438 23.9575 26.4538 26.8329 26.4725 30.2857C26.4758 31.248 26.6977 32.1969 27.1216 33.0608C27.5455 33.9247 28.1603 34.6809 28.9194 35.2722C29.3019 35.5674 29.6162 35.9415 29.8411 36.3691C30.066 36.7967 30.1961 37.2677 30.2225 37.75H35.4819C35.5089 37.2667 35.6392 36.7948 35.864 36.3661C36.0888 35.9374 36.4029 35.5618 36.785 35.2647C37.5464 34.6697 38.1617 33.9085 38.5841 33.0395C39.0066 32.1704 39.2249 31.2163 39.2225 30.25ZM37.341 29.7513C37.2414 28.9095 36.9086 28.1123 36.38 27.4497C35.8514 26.7871 35.148 26.2854 34.3494 26.0013C34.0703 25.9101 33.7665 25.9317 33.5031 26.0614C33.2396 26.1911 33.0373 26.4187 32.9394 26.6956C32.8415 26.9724 32.8557 27.2766 32.979 27.5431C33.1023 27.8096 33.325 28.0174 33.5994 28.1219C34.0007 28.2626 34.3547 28.5128 34.6213 28.8441C34.8878 29.1755 35.0564 29.5748 35.1079 29.9969C35.1407 30.2936 35.29 30.565 35.5229 30.7515C35.6383 30.8439 35.7707 30.9126 35.9126 30.9538C36.0545 30.995 36.2032 31.0079 36.35 30.9916C36.4969 30.9754 36.6391 30.9303 36.7686 30.8591C36.8981 30.7879 37.0123 30.6919 37.1046 30.5765C37.197 30.4612 37.2658 30.3288 37.3069 30.1868C37.3481 30.0449 37.361 29.8963 37.3447 29.7494L37.341 29.7513Z" fill="#F7B50E"/>
</svg>
