<svg width="185" height="37" viewBox="0 0 185 37" fill="none" xmlns="http://www.w3.org/2000/svg">
<path fill-rule="evenodd" clip-rule="evenodd" d="M24.7687 33.2564L33.3418 33.256L33.3422 3.74109L24.4862 3.73694C24.1463 3.94553 23.9219 5.2266 23.7828 5.67953C23.5659 6.38426 23.354 7.09024 23.1604 7.78957C22.7764 9.17535 22.329 10.5503 21.9343 11.9374C21.7406 12.618 20.7003 15.6617 20.8557 16.1234C20.9599 16.4334 21.6409 17.4867 21.8603 17.8653L23.3448 20.4345C23.8679 21.3241 23.6319 21.0644 22.5097 23.0664C20.2337 27.1269 20.328 25.7258 21.68 28.1317C21.9866 28.6777 24.3582 33.0744 24.7691 33.2564H24.7687Z" fill="white"/>
<path fill-rule="evenodd" clip-rule="evenodd" d="M2.6875 28.1807H17.5415C17.8976 27.299 21.0768 22.0966 21.9714 20.4436C22.1629 20.0896 22.0923 20.0717 21.8829 19.7351C21.381 18.929 20.6497 17.7207 20.2787 16.9257C20.0124 17.1231 20.1084 17.0508 19.9272 17.3762C19.8109 17.5848 19.7747 17.6646 19.6588 17.8607L15.6419 24.8773L6.01221 24.8852L5.98437 7.03205L15.6294 7.03787L19.9214 14.5253C19.9712 14.6021 19.9422 14.5656 20.0045 14.6449C20.1113 14.7812 20.0527 14.716 20.164 14.8132C20.3377 13.8932 20.7632 12.6462 21.0507 11.7121C21.2248 11.1462 21.4898 10.6667 21.2435 10.1938C20.5118 8.79264 17.9532 4.7504 17.5303 3.73776L2.68833 3.73651V28.1807H2.6875Z" fill="#F7B50E"/>
<path fill-rule="evenodd" clip-rule="evenodd" d="M26.5166 19.3861H30.044L30.0465 7.03245L26.8016 7.03162C26.3063 9.24845 24.9485 12.9658 24.3943 15.2532C24.2476 15.8578 25.9307 18.1158 26.5161 19.3861H26.5166Z" fill="#1F201D"/>
<path fill-rule="evenodd" clip-rule="evenodd" d="M26.6539 29.9612H30.0467V22.6874L26.6539 22.687C26.3855 22.7556 24.5108 26.2111 24.505 26.2842C24.4876 26.4999 26.3581 29.79 26.6539 29.9612Z" fill="#1F201D"/>
<path fill-rule="evenodd" clip-rule="evenodd" d="M2.61865 31.0757H8.55676V29.945H2.61865V31.0757Z" fill="#F7B50E"/>
<path fill-rule="evenodd" clip-rule="evenodd" d="M16.3799 31.0757H22.318V29.945H16.3799V31.0757Z" fill="#F7B50E"/>
<path fill-rule="evenodd" clip-rule="evenodd" d="M6.01172 33.2439H11.9498V32.1129H6.01172V33.2439Z" fill="#F7B50E"/>
<path fill-rule="evenodd" clip-rule="evenodd" d="M12.9873 33.2435H18.925V32.1129H12.8926H12.9873V33.2435Z" fill="white"/>
<path fill-rule="evenodd" clip-rule="evenodd" d="M9.49952 31.0757H15.3433L15.4372 29.945H9.40479H9.49952V31.0757Z" fill="white"/>
<path fill-rule="evenodd" clip-rule="evenodd" d="M19.9619 33.2439H22.3181V32.1129H19.9619V33.2439Z" fill="#F7B50E"/>
<path fill-rule="evenodd" clip-rule="evenodd" d="M2.61865 33.2435H4.97487V32.1129H5.06918H2.71297L2.61865 33.2435Z" fill="white"/>
<path d="M42.98 29.5V7.15H50.27C52.69 7.15 54.79 7.63 56.57 8.59C58.35 9.55 59.73 10.87 60.71 12.55C61.69 14.23 62.18 16.15 62.18 18.31C62.18 20.47 61.69 22.4 60.71 24.1C59.73 25.78 58.35 27.1 56.57 28.06C54.79 29.02 52.69 29.5 50.27 29.5H42.98ZM47.63 25.45H50.39C51.85 25.45 53.11 25.16 54.17 24.58C55.23 23.98 56.05 23.15 56.63 22.09C57.23 21.01 57.53 19.75 57.53 18.31C57.53 16.85 57.23 15.59 56.63 14.53C56.05 13.47 55.23 12.65 54.17 12.07C53.11 11.49 51.85 11.2 50.39 11.2H47.63V25.45ZM72.7177 29.86C70.9777 29.86 69.4677 29.48 68.1877 28.72C66.9077 27.94 65.9177 26.9 65.2177 25.6C64.5177 24.3 64.1677 22.86 64.1677 21.28C64.1677 19.64 64.5277 18.18 65.2477 16.9C65.9877 15.62 66.9777 14.61 68.2177 13.87C69.4577 13.13 70.8577 12.76 72.4177 12.76C73.7177 12.76 74.8677 12.97 75.8677 13.39C76.8677 13.79 77.7077 14.36 78.3877 15.1C79.0877 15.84 79.6177 16.7 79.9777 17.68C80.3377 18.64 80.5177 19.69 80.5177 20.83C80.5177 21.15 80.4977 21.47 80.4577 21.79C80.4377 22.09 80.3877 22.35 80.3077 22.57H68.0377V19.27H77.7577L75.6277 20.83C75.8277 19.97 75.8177 19.21 75.5977 18.55C75.3777 17.87 74.9877 17.34 74.4277 16.96C73.8877 16.56 73.2177 16.36 72.4177 16.36C71.6377 16.36 70.9677 16.55 70.4077 16.93C69.8477 17.31 69.4277 17.87 69.1477 18.61C68.8677 19.35 68.7577 20.25 68.8177 21.31C68.7377 22.23 68.8477 23.04 69.1477 23.74C69.4477 24.44 69.9077 24.99 70.5277 25.39C71.1477 25.77 71.8977 25.96 72.7777 25.96C73.5777 25.96 74.2577 25.8 74.8177 25.48C75.3977 25.16 75.8477 24.72 76.1677 24.16L79.7677 25.87C79.4477 26.67 78.9377 27.37 78.2377 27.97C77.5577 28.57 76.7477 29.04 75.8077 29.38C74.8677 29.7 73.8377 29.86 72.7177 29.86ZM91.2076 29.86C89.5676 29.86 88.0876 29.49 86.7676 28.75C85.4676 27.99 84.4276 26.96 83.6476 25.66C82.8876 24.36 82.5076 22.9 82.5076 21.28C82.5076 19.66 82.8876 18.21 83.6476 16.93C84.4076 15.63 85.4476 14.61 86.7676 13.87C88.0876 13.13 89.5676 12.76 91.2076 12.76C92.4276 12.76 93.5576 12.97 94.5976 13.39C95.6376 13.81 96.5276 14.4 97.2676 15.16C98.0076 15.9 98.5376 16.78 98.8576 17.8L94.9576 19.48C94.6776 18.66 94.1976 18.01 93.5176 17.53C92.8576 17.05 92.0876 16.81 91.2076 16.81C90.4276 16.81 89.7276 17 89.1076 17.38C88.5076 17.76 88.0276 18.29 87.6676 18.97C87.3276 19.65 87.1576 20.43 87.1576 21.31C87.1576 22.19 87.3276 22.97 87.6676 23.65C88.0276 24.33 88.5076 24.86 89.1076 25.24C89.7276 25.62 90.4276 25.81 91.2076 25.81C92.1076 25.81 92.8876 25.57 93.5476 25.09C94.2076 24.61 94.6776 23.96 94.9576 23.14L98.8576 24.85C98.5576 25.81 98.0376 26.67 97.2976 27.43C96.5576 28.19 95.6676 28.79 94.6276 29.23C93.5876 29.65 92.4476 29.86 91.2076 29.86ZM109.637 29.86C108.017 29.86 106.537 29.49 105.197 28.75C103.877 28.01 102.817 27 102.017 25.72C101.237 24.42 100.847 22.95 100.847 21.31C100.847 19.65 101.237 18.18 102.017 16.9C102.817 15.62 103.877 14.61 105.197 13.87C106.537 13.13 108.017 12.76 109.637 12.76C111.257 12.76 112.727 13.13 114.047 13.87C115.367 14.61 116.417 15.62 117.197 16.9C117.997 18.18 118.397 19.65 118.397 21.31C118.397 22.95 117.997 24.42 117.197 25.72C116.417 27 115.367 28.01 114.047 28.75C112.727 29.49 111.257 29.86 109.637 29.86ZM109.637 25.81C110.457 25.81 111.167 25.62 111.767 25.24C112.387 24.86 112.867 24.33 113.207 23.65C113.567 22.97 113.747 22.19 113.747 21.31C113.747 20.43 113.567 19.66 113.207 19C112.867 18.32 112.387 17.79 111.767 17.41C111.167 17.01 110.457 16.81 109.637 16.81C108.817 16.81 108.097 17.01 107.477 17.41C106.857 17.79 106.367 18.32 106.007 19C105.667 19.66 105.497 20.43 105.497 21.31C105.497 22.19 105.667 22.97 106.007 23.65C106.367 24.33 106.857 24.86 107.477 25.24C108.097 25.62 108.817 25.81 109.637 25.81ZM121.048 29.5V13.12H125.248V17.05L124.948 16.48C125.308 15.1 125.898 14.17 126.718 13.69C127.558 13.19 128.548 12.94 129.688 12.94H130.648V16.84H129.238C128.138 16.84 127.248 17.18 126.568 17.86C125.888 18.52 125.548 19.46 125.548 20.68V29.5H121.048Z" fill="#F7B50E"/>
<path d="M132.951 29.5V7.15H142.401C143.941 7.15 145.261 7.41 146.361 7.93C147.461 8.45 148.301 9.2 148.881 10.18C149.461 11.14 149.751 12.31 149.751 13.69C149.751 14.67 149.481 15.61 148.941 16.51C148.401 17.39 147.511 18.13 146.271 18.73V16.45C147.451 16.91 148.361 17.46 149.001 18.1C149.641 18.74 150.081 19.44 150.321 20.2C150.561 20.94 150.681 21.72 150.681 22.54C150.681 24.74 149.951 26.45 148.491 27.67C147.031 28.89 145.001 29.5 142.401 29.5H132.951ZM137.601 25.45H142.941C143.881 25.45 144.631 25.18 145.191 24.64C145.751 24.1 146.031 23.4 146.031 22.54C146.031 21.66 145.751 20.95 145.191 20.41C144.631 19.87 143.881 19.6 142.941 19.6H137.601V25.45ZM137.601 15.55H142.731C143.451 15.55 144.021 15.35 144.441 14.95C144.881 14.53 145.101 13.98 145.101 13.3C145.101 12.62 144.881 12.08 144.441 11.68C144.021 11.26 143.451 11.05 142.731 11.05H137.601V15.55ZM153.664 29.5V7.15H158.164L166.534 18.25H164.434L172.564 7.15H177.064V29.5H172.414V12.28L174.274 12.7L165.664 23.8H165.064L156.754 12.7L158.314 12.28V29.5H153.664Z" fill="#1F201D"/>
</svg>
